<?xml version="1.0" encoding="UTF-8" standalone="no"?>
<svg width="35px" height="18px" viewBox="0 0 35 18" version="1.1" xmlns="http://www.w3.org/2000/svg" xmlns:xlink="http://www.w3.org/1999/xlink" xmlns:sketch="http://www.bohemiancoding.com/sketch/ns">
    <!-- Generator: Sketch 3.3.3 (12081) - http://www.bohemiancoding.com/sketch -->
    <title>ambulance</title>
    <desc>Created with Sketch.</desc>
    <defs></defs>
    <g id="Magiczny-Bank" stroke="none" stroke-width="1" fill="none" fill-rule="evenodd" sketch:type="MSPage">
        <g id="MAIN-SCREEN-HEALTH" sketch:type="MSArtboardGroup" transform="translate(-18.000000, -459.000000)" fill="#946C65">
            <g id="ambulance" sketch:type="MSLayerGroup" transform="translate(18.000000, 459.000000)">
                <path d="M6.9755,11.655 C5.33866667,11.655 4.01138889,12.990913 4.01138889,14.6375217 C4.01138889,16.2853043 5.33827778,17.6208261 6.9755,17.6208261 C8.61311111,17.6208261 9.94038889,16.2853043 9.94038889,14.6375217 C9.94038889,12.990913 8.61311111,11.655 6.9755,11.655 L6.9755,11.655 Z M27.8852778,11.655 C26.2476667,11.655 24.9207778,12.990913 24.9207778,14.6375217 C24.9207778,16.2853043 26.2476667,17.6208261 27.8852778,17.6208261 C29.5225,17.6208261 30.849,16.2853043 30.849,14.6375217 C30.849,12.990913 29.5225,11.655 27.8852778,11.655 L27.8852778,11.655 Z M34.6702222,12.6418696 L33.8275,7.87695652 C33.7248333,7.29821739 33.1679444,6.76017391 32.5881111,6.68113043 L26.9433889,5.91495652 C26.3639444,5.83669565 25.5807222,5.40508696 25.2023333,4.95704348 L22.0278333,1.19426087 C21.6490556,0.745826087 20.8615556,0.379173913 20.2770556,0.379173913 L2.91044444,0.379173913 C2.32594444,0.379173913 1.78811111,0.856565217 1.71577778,1.44 L0.321611111,12.6340435 C0.248888889,13.2174783 0.667333333,13.6944783 1.25183333,13.6944783 L2.90344444,13.6944783 C3.32966667,11.826 4.98944444,10.4298261 6.97588889,10.4298261 C8.96311111,10.4298261 10.6228889,11.8256087 11.0491111,13.6944783 L23.8128333,13.6944783 C24.2398333,11.826 25.8988333,10.4298261 27.8856667,10.4298261 C29.8717222,10.4298261 31.5322778,11.8256087 31.9585,13.6944783 L33.7948333,13.6944783 C34.3793333,13.6944783 34.7736667,13.221 34.6702222,12.6418696 L34.6702222,12.6418696 Z M14.2337222,6.6783913 C14.2337222,6.84195652 14.1011111,6.9753913 13.9385556,6.9753913 L11.9999444,6.9753913 C11.8366111,6.9753913 11.7043889,7.1096087 11.7043889,7.27278261 L11.7043889,9.2246087 C11.7043889,9.38817391 11.5706111,9.522 11.4080556,9.522 L9.76227778,9.522 C9.60011111,9.522 9.46633333,9.38817391 9.46633333,9.2246087 L9.46633333,7.27278261 C9.46633333,7.1096087 9.33411111,6.9753913 9.17116667,6.9753913 L7.23255556,6.9753913 C7.06961111,6.9753913 6.937,6.84195652 6.937,6.6783913 L6.937,5.0216087 C6.937,4.85843478 7.06961111,4.7246087 7.23255556,4.7246087 L9.17116667,4.7246087 C9.33411111,4.7246087 9.46633333,4.5903913 9.46633333,4.42721739 L9.46633333,2.47578261 C9.46633333,2.31221739 9.60011111,2.1783913 9.76227778,2.1783913 L11.4080556,2.1783913 C11.5702222,2.1783913 11.7043889,2.31221739 11.7043889,2.47578261 L11.7043889,4.42721739 C11.7043889,4.5903913 11.8366111,4.7246087 11.9999444,4.7246087 L13.9385556,4.7246087 C14.1007222,4.7246087 14.2337222,4.85843478 14.2337222,5.0216087 L14.2337222,6.6783913 L14.2337222,6.6783913 Z M23.8676667,6.4893913 L17.7407222,6.4893913 L17.7407222,1.78708696 C17.7407222,1.78708696 19.9651667,1.78708696 20.6896667,2.05747826 C21.4122222,2.32669565 23.7533333,5.6066087 24.0208889,5.90282609 C24.2896111,6.2006087 24.2168889,6.4893913 23.8676667,6.4893913 L23.8676667,6.4893913 Z" id="Shape" sketch:type="MSShapeGroup"></path>
            </g>
        </g>
    </g>
</svg>