<?xml version="1.0" encoding="UTF-8" standalone="no"?>
<svg width="32px" height="29px" viewBox="0 0 32 29" version="1.1" xmlns="http://www.w3.org/2000/svg" xmlns:xlink="http://www.w3.org/1999/xlink" xmlns:sketch="http://www.bohemiancoding.com/sketch/ns">
    <!-- Generator: Sketch 3.3.3 (12081) - http://www.bohemiancoding.com/sketch -->
    <title>Shape</title>
    <desc>Created with Sketch.</desc>
    <defs></defs>
    <g id="Magiczny-Bank" stroke="none" stroke-width="1" fill="none" fill-rule="evenodd" sketch:type="MSPage">
        <g id="MAIN-SCREEN-HOME" sketch:type="MSArtboardGroup" transform="translate(-284.000000, -230.000000)" fill="#7897AA">
            <g id="Rectangle-45-Copy-3-+-SAMOCHÓD-+-Shape" sketch:type="MSLayerGroup" transform="translate(240.000000, 200.000000)">
                <g id="SAMOCHÓD-+-Shape" transform="translate(22.000000, 30.000000)" sketch:type="MSShapeGroup">
                    <path d="M25.9444444,11.2277778 L28.5277778,3.47777778 L47.4722222,3.47777778 L50.0555556,11.2277778 L25.9444444,11.2277778 Z M47.4722222,19.8388889 C46.0454866,19.8388889 44.8888889,18.6822912 44.8888889,17.2555556 C44.8888889,15.82882 46.0454866,14.6722222 47.4722222,14.6722222 C48.8989578,14.6722222 50.0555556,15.82882 50.0555556,17.2555556 C50.0555556,18.6822912 48.8989578,19.8388889 47.4722222,19.8388889 L47.4722222,19.8388889 Z M28.5277778,19.8388889 C27.1010422,19.8388889 25.9444444,18.6822912 25.9444444,17.2555556 C25.9444444,15.82882 27.1010422,14.6722222 28.5277778,14.6722222 C29.9545134,14.6722222 31.1111111,15.82882 31.1111111,17.2555556 C31.1111111,18.6822912 29.9545134,19.8388889 28.5277778,19.8388889 L28.5277778,19.8388889 Z M49.9177778,2.61666667 C49.5733333,1.61777778 48.6088889,0.894444444 47.4722222,0.894444444 L28.5277778,0.894444444 C27.3911111,0.894444444 26.4266667,1.61777778 26.0822222,2.61666667 L22.5,12.95 L22.5,26.7277778 C22.5,27.6789348 23.2710652,28.45 24.2222222,28.45 L25.9444444,28.45 C26.8956015,28.45 27.6666667,27.6789348 27.6666667,26.7277778 L27.6666667,25.0055556 L48.3333333,25.0055556 L48.3333333,26.7277778 C48.3333333,27.6789348 49.1043985,28.45 50.0555556,28.45 L51.7777778,28.45 C52.7289348,28.45 53.5,27.6789348 53.5,26.7277778 L53.5,12.95 L49.9177778,2.61666667 L49.9177778,2.61666667 Z" id="Shape"></path>
                </g>
            </g>
        </g>
    </g>
</svg>