<?xml version="1.0" encoding="UTF-8" standalone="no"?>
<svg width="28px" height="29px" viewBox="0 0 28 29" version="1.1" xmlns="http://www.w3.org/2000/svg" xmlns:xlink="http://www.w3.org/1999/xlink" xmlns:sketch="http://www.bohemiancoding.com/sketch/ns">
    <!-- Generator: Sketch 3.3.3 (12081) - http://www.bohemiancoding.com/sketch -->
    <title>Shape</title>
    <desc>Created with Sketch.</desc>
    <defs></defs>
    <g id="Magiczny-Bank" stroke="none" stroke-width="1" fill="none" fill-rule="evenodd" sketch:type="MSPage">
        <g id="MAIN-SCREEN-HOME" sketch:type="MSArtboardGroup" transform="translate(-166.000000, -230.000000)" fill="#946C65">
            <g id="Rectangle-45-Copy-2-+-ZDROWIE-+-Shape" sketch:type="MSLayerGroup" transform="translate(120.000000, 200.000000)">
                <g id="ZDROWIE-+-Shape" transform="translate(30.000000, 30.000000)" sketch:type="MSShapeGroup">
                    <path d="M18.5768222,13.5075249 L28.9575249,3.12682223 C32.4079706,-0.308940745 37.972732,-0.308940745 41.4231778,3.12682223 C44.8589407,6.56258521 44.8589407,12.1420294 41.4231778,15.5924751 L31.0424751,25.9731778 C27.5920294,29.4089407 22.0125852,29.4089407 18.5768222,25.9731778 C15.1410593,22.522732 15.1410593,16.9579706 18.5768222,13.5075249 L18.5768222,13.5075249 Z M20.6617724,15.5924751 C19.1200839,17.1194809 18.6061877,19.3072103 19.1347666,21.2600157 L27.9297326,12.4797326 L34.1552176,18.7052176 L39.3382276,13.5075249 C41.643419,11.2170163 41.643419,7.50228107 39.3382276,5.21177242 C37.0477189,2.90658102 33.3329837,2.90658102 31.0424751,5.21177242 L20.6617724,15.5924751 L20.6617724,15.5924751 Z" id="Shape"></path>
                </g>
            </g>
        </g>
    </g>
</svg>