<?xml version="1.0" encoding="UTF-8" standalone="no"?>
<svg width="24px" height="30px" viewBox="0 0 24 30" version="1.1" xmlns="http://www.w3.org/2000/svg" xmlns:xlink="http://www.w3.org/1999/xlink" xmlns:sketch="http://www.bohemiancoding.com/sketch/ns">
    <!-- Generator: Sketch 3.3.3 (12081) - http://www.bohemiancoding.com/sketch -->
    <title>tap copy</title>
    <desc>Created with Sketch.</desc>
    <defs></defs>
    <g id="Magiczny-Bank" stroke="none" stroke-width="1" fill="none" fill-rule="evenodd" sketch:type="MSPage">
        <g id="MAIN-SCREEN-HOME-Copy" sketch:type="MSArtboardGroup" transform="translate(-25.000000, -237.000000)" fill="#FFFFFF">
            <g id="tap-copy" sketch:type="MSLayerGroup" transform="translate(25.000000, 237.000000)">
                <path d="M23.7374815,26.7188148 C23.7374815,28.0367407 22.6693333,29.1054815 21.3511111,29.1054815 C20.0325926,29.1054815 18.9647407,28.037037 18.9647407,26.7188148 C18.9647407,25.3022222 20.3466667,23.6758519 20.9466667,22.578963 C21.2634074,22 21.2213333,21.6714074 21.3508148,21.6714074 C21.4802963,21.6714074 21.4485926,22.0557037 21.7534815,22.6595556 C22.3173333,23.7748148 23.7374815,25.2980741 23.7374815,26.7188148 L23.7374815,26.7188148 Z" id="Shape" sketch:type="MSShapeGroup"></path>
                <path d="M21.3099259,11.5336296 L14.3434074,11.5336296 C13.4527407,11.5336296 13.0296296,10.9973333 13.0296296,10.1256296 L13.0296296,6.46785185 L11.8622222,6.46785185 L11.8622222,3.98488889 C12.312,3.76059259 12.6693333,3.43851852 12.8802963,3.056 C14.5454815,3.20414815 15.8308148,4.06755556 17.3357037,4.06755556 C18.3368889,4.06755556 19.1487407,3.2557037 19.1487407,2.25392593 C19.1487407,1.25274074 18.3368889,0.440592593 17.3357037,0.440592593 C15.9502222,0.440592593 14.5466667,1.11377778 12.8334815,1.37777778 C12.4008889,0.673481481 11.4660741,0.184888889 10.378963,0.184888889 C9.25362963,0.184888889 8.2882963,0.707555556 7.87792593,1.45244444 C6.21274074,1.30459259 4.92740741,0.440592593 3.42281481,0.440592593 C2.42162963,0.440592593 1.60918519,1.25274074 1.60918519,2.25392593 C1.60918519,3.2557037 2.42133333,4.06755556 3.42281481,4.06755556 C4.8082963,4.06755556 6.21244444,3.39466667 7.92444444,3.13096296 C8.13925926,3.4797037 8.47762963,3.77540741 8.8962963,3.98548148 L8.8962963,6.46785185 L7.52296296,6.46785185 L7.52296296,10.1051852 C7.52296296,10.9463704 7.31081481,11.5336296 6.20622222,11.5336296 L0.188444444,11.5336296 L0.188444444,16.8663704 L6.64118519,16.8663704 C6.64118519,16.8663704 8.44977778,17.2308148 10.2868148,17.2308148 C12.1235556,17.2308148 13.9324444,16.8663704 13.9324444,16.8663704 L15.9297778,16.8663704 C16.7499259,16.8740741 18.1715556,16.8228148 18.1715556,17.6651852 L18.2767407,20.7872593 C19.4068148,21.3066667 23.117037,21.1605926 23.9522963,20.7155556 L23.9641481,13.8091852 C23.9644444,12.3211852 23.1045926,11.5336296 21.3099259,11.5336296 L21.3099259,11.5336296 Z" id="Shape" sketch:type="MSShapeGroup"></path>
            </g>
        </g>
    </g>
</svg>