<?xml version="1.0" encoding="UTF-8" standalone="no"?>
<svg width="64px" height="80px" viewBox="0 0 64 80" version="1.1" xmlns="http://www.w3.org/2000/svg" xmlns:xlink="http://www.w3.org/1999/xlink" xmlns:sketch="http://www.bohemiancoding.com/sketch/ns">
    <!-- Generator: Sketch 3.3.3 (12081) - http://www.bohemiancoding.com/sketch -->
    <title>Shape</title>
    <desc>Created with Sketch.</desc>
    <defs></defs>
    <g id="Magiczny-Bank" stroke="none" stroke-width="1" fill="none" fill-rule="evenodd" sketch:type="MSPage">
        <g id="ORDER---PLUMBER---CONFIRMATION-Copy" sketch:type="MSArtboardGroup" transform="translate(-148.000000, -312.000000)" fill="#414141">
            <path d="M212,312 L212,320 L204,320 L204,337.64 L189.64,352 L204,366.36 L204,384 L212,384 L212,392 L148,392 L148,384 L156,384 L156,366.36 L170.36,352 L156,337.64 L156,320 L148,320 L148,312 L212,312 L212,312 Z M196,369.64 L184,357.64 L184,346.36 L196,334.36 L196,320 L164,320 L164,334.36 L176,346.36 L176,357.64 L164,369.64 L164,372 L172,372 L180,364 L188,372 L196,372 L196,369.64 L196,369.64 Z M180,340 L172,332 L188,332 L180,340 L180,340 Z" id="Shape" sketch:type="MSShapeGroup"></path>
        </g>
    </g>
</svg>