<?xml version="1.0" encoding="UTF-8" standalone="no"?>
<svg width="38px" height="21px" viewBox="0 0 38 21" version="1.1" xmlns="http://www.w3.org/2000/svg" xmlns:xlink="http://www.w3.org/1999/xlink" xmlns:sketch="http://www.bohemiancoding.com/sketch/ns">
    <!-- Generator: Sketch 3.3.3 (12081) - http://www.bohemiancoding.com/sketch -->
    <title>tow</title>
    <desc>Created with Sketch.</desc>
    <defs></defs>
    <g id="Magiczny-Bank" stroke="none" stroke-width="1" fill="none" fill-rule="evenodd" sketch:type="MSPage">
        <g id="MAIN-SCREEN-CAR" sketch:type="MSArtboardGroup" transform="translate(-16.000000, -381.000000)">
            <g id="tow" sketch:type="MSLayerGroup" transform="translate(16.000000, 381.000000)">
                <path d="M31.5291429,14.6445385 C29.7909143,14.6445385 28.3816571,16.0402308 28.3816571,17.7649231 C28.3816571,19.4885385 29.7909143,20.8863846 31.5291429,20.8863846 C33.2673714,20.8863846 34.6766286,19.4885385 34.6766286,17.7649231 C34.6766286,16.0402308 33.2673714,14.6445385 31.5291429,14.6445385 L31.5291429,14.6445385 Z M31.5291429,19.3943077 C30.6220286,19.3943077 29.887,18.6652308 29.887,17.7665385 C29.887,16.8651538 30.6220286,16.1376923 31.5291429,16.1376923 C32.4362571,16.1376923 33.1702,16.8667692 33.1702,17.7665385 C33.1707429,18.6641538 32.4362571,19.3943077 31.5291429,19.3943077 L31.5291429,19.3943077 Z" id="Shape" fill="#7897AA" sketch:type="MSShapeGroup"></path>
                <path d="M13.1740571,14.6434615 C11.4352857,14.6434615 10.0260286,16.0396923 10.0260286,17.7643846 C10.0260286,19.4874615 11.4352857,20.8858462 13.1740571,20.8858462 C14.9117429,20.8858462 16.321,19.4874615 16.321,17.7643846 C16.3204571,16.0396923 14.9117429,14.6434615 13.1740571,14.6434615 L13.1740571,14.6434615 Z M13.1740571,19.3943077 C12.2664,19.3943077 11.5319143,18.6652308 11.5319143,17.766 C11.5319143,16.8651538 12.2669429,16.1371538 13.1740571,16.1371538 C14.0806286,16.1371538 14.8151143,16.8662308 14.8151143,17.766 C14.8151143,18.6636154 14.0806286,19.3943077 13.1740571,19.3943077 L13.1740571,19.3943077 Z" id="Shape" fill="#7897AA" sketch:type="MSShapeGroup"></path>
                <path d="M5.04802857,14.6434615 C3.30925714,14.6434615 1.9,16.0396923 1.9,17.7643846 C1.9,19.4874615 3.30925714,20.8858462 5.04802857,20.8858462 C6.78571429,20.8858462 8.19497143,19.4874615 8.19497143,17.7643846 C8.19497143,16.0396923 6.78571429,14.6434615 5.04802857,14.6434615 L5.04802857,14.6434615 Z M5.04802857,19.3943077 C4.14037143,19.3943077 3.40588571,18.6652308 3.40588571,17.766 C3.40588571,16.8651538 4.14091429,16.1371538 5.04802857,16.1371538 C5.9546,16.1371538 6.68908571,16.8662308 6.68908571,17.766 C6.68908571,18.6636154 5.9546,19.3943077 5.04802857,19.3943077 L5.04802857,19.3943077 Z" id="Shape" fill="#7897AA" sketch:type="MSShapeGroup"></path>
                <path d="M4.81134286,9.52969231 C3.86405714,9.52969231 3.09591429,10.2905385 3.09591429,11.2312308 C3.09591429,12.1697692 3.86351429,12.9316923 4.81134286,12.9316923 C5.75808571,12.9316923 6.52622857,12.1697692 6.52622857,11.2312308 C6.52622857,10.2905385 5.75808571,9.52969231 4.81134286,9.52969231 L4.81134286,9.52969231 Z M4.81134286,12.1191538 C4.3168,12.1191538 3.91617143,11.7217692 3.91617143,11.2317692 C3.91617143,10.7412308 4.3168,10.3438462 4.81134286,10.3438462 C5.30534286,10.3438462 5.70542857,10.7412308 5.70542857,11.2317692 C5.70542857,11.7212308 5.30534286,12.1191538 4.81134286,12.1191538 L4.81134286,12.1191538 Z" id="Shape" fill="#7897AA" sketch:type="MSShapeGroup"></path>
                <path d="M4.47911429,2.81992308 L15.3064,2.81992308 C15.3064,2.81992308 15.0588571,2.13069231 14.2125429,2.13069231 L5.59305714,2.13069231 C5.59305714,2.13069231 4.47911429,2.24538462 4.47911429,2.81992308 L4.47911429,2.81992308 Z" id="Shape" fill="#7897AA" sketch:type="MSShapeGroup"></path>
                <path d="M18.6726571,9.52969231 C17.7248286,9.52969231 16.9572286,10.2905385 16.9572286,11.2312308 C16.9572286,12.1697692 17.7248286,12.9316923 18.6726571,12.9316923 C19.6204857,12.9316923 20.3880857,12.1697692 20.3880857,11.2312308 C20.3880857,10.2905385 19.6204857,9.52969231 18.6726571,9.52969231 L18.6726571,9.52969231 Z M18.6726571,12.1191538 C18.1781143,12.1191538 17.7774857,11.7217692 17.7774857,11.2317692 C17.7774857,10.7412308 18.1781143,10.3438462 18.6726571,10.3438462 C19.1672,10.3438462 19.5672857,10.7412308 19.5672857,11.2317692 C19.5672857,11.7212308 19.1672,12.1191538 18.6726571,12.1191538 L18.6726571,12.1191538 Z" id="Shape" fill="#7897AA" sketch:type="MSShapeGroup"></path>
                <path d="M21.7408857,6.47176923 L17.2932571,5.59946154 C16.606,4.37446154 15.3400571,3.02669231 15.3400571,3.02669231 L4.45142857,3.02669231 L2.55468571,5.50738462 C1.09657143,7.37530769 1.17962857,9.18238462 1.17962857,9.18238462 C1.33162857,10.8386923 2.52211429,11.1219231 2.94662857,11.1698462 C2.9526,10.1505385 3.78697143,9.32615385 4.81514286,9.32615385 C5.84765714,9.32615385 6.6842,10.1564615 6.6842,11.1800769 L16.7976286,11.1800769 C16.7976286,10.1564615 17.6347143,9.32615385 18.6666857,9.32615385 C19.6986571,9.32615385 20.5362857,10.1564615 20.5362857,11.1800769 L21.2257143,11.1800769 C22.3814571,11.0416923 22.3190286,8.23953846 22.3190286,8.23953846 C22.4015429,6.51753846 21.7408857,6.47176923 21.7408857,6.47176923 L21.7408857,6.47176923 Z M9.52117143,5.81107692 C9.52117143,5.81107692 9.49782857,6.11961538 8.95822857,6.11961538 L4.22451429,6.11961538 C4.22451429,6.11961538 3.45094286,6.03130769 3.96611429,5.15038462 L4.5752,4.09230769 C4.5752,4.09230769 4.85694286,3.65184615 5.5366,3.60769231 L8.79428571,3.60769231 C8.79428571,3.60769231 9.49782857,3.58561538 9.52117143,4.48915385 L9.52117143,5.81107692 L9.52117143,5.81107692 Z M11.1166286,7.42861538 L10.5102571,7.42861538 C10.4510857,7.42861538 10.4033143,7.38123077 10.4033143,7.32253846 C10.4033143,7.26384615 10.4516286,7.21646154 10.5102571,7.21646154 L11.1166286,7.21646154 C11.1758,7.21646154 11.2235714,7.26384615 11.2235714,7.32253846 C11.2235714,7.38123077 11.1758,7.42861538 11.1166286,7.42861538 L11.1166286,7.42861538 Z M9.94297143,6.11961538 L9.94297143,4.158 C9.94297143,4.158 9.94297143,3.62923077 10.6693143,3.60715385 L14.5132857,3.60715385 C14.5132857,3.60715385 14.7706,3.54092308 15.1457143,4.04761538 L16.5989429,6.11907692 L9.94297143,6.11907692 L9.94297143,6.11961538 Z M21.5487143,8.36123077 C21.3994286,8.36123077 21.2783714,8.07961538 21.2783714,7.73230769 C21.2783714,7.385 21.3994286,7.10392308 21.5487143,7.10392308 C21.698,7.10392308 21.8190571,7.38553846 21.8190571,7.73230769 C21.8190571,8.07961538 21.6985429,8.36123077 21.5487143,8.36123077 L21.5487143,8.36123077 Z" id="Shape" fill="#7897AA" sketch:type="MSShapeGroup"></path>
                <g id="Group" sketch:type="MSShapeGroup">
                    <path d="M32.3,2.01923077 L28.025,2.01923077 L28.025,8.92930769 L35.8285714,8.92930769 L35.8285714,7.11415385 C35.8285714,4.88869231 32.3,2.01923077 32.3,2.01923077 L32.3,2.01923077 Z" id="Shape"></path>
                    <rect id="Rectangle-path" x="24.6321429" y="2.01923077" width="1.9" height="6.91007692"></rect>
                    <path d="M33.1142857,0.493769231 L23.2071429,0.493769231 L23.2071429,13.1826154 L0.882142857,13.1826154 L0.882142857,16.3557692 L0,16.3557692 L0,17.3653846 L1.39677143,17.3653846 C1.50262857,15.4673077 3.08451429,13.9574615 5.02577143,13.9574615 C6.96702857,13.9574615 8.54837143,15.4673077 8.65477143,17.3653846 L9.50271429,17.3653846 C9.60911429,15.4673077 11.191,13.9574615 13.1317143,13.9574615 C15.0724286,13.9574615 16.6543143,15.4673077 16.7607143,17.3653846 L27.9272857,17.3653846 C28.0331429,15.4673077 29.6150286,13.9574615 31.5568286,13.9574615 C33.497,13.9574615 35.0794286,15.4673077 35.1863714,17.3653846 L37.8664571,17.3653846 L37.8664571,7.99238462 C37.8642857,4.96407692 33.1142857,0.493769231 33.1142857,0.493769231 L33.1142857,0.493769231 Z M26.5321429,8.92930769 L24.6321429,8.92930769 L24.6321429,2.01923077 L26.5321429,2.01923077 L26.5321429,8.92930769 L26.5321429,8.92930769 Z M35.8285714,8.92930769 L28.025,8.92930769 L28.025,2.01923077 L32.3,2.01923077 C32.3,2.01923077 35.8285714,4.88869231 35.8285714,7.11415385 L35.8285714,8.92930769 L35.8285714,8.92930769 Z" id="Shape" fill="#7897AA"></path>
                    <path d="M0.882142857,13.1826154 L0.882142857,11.1806154 L0,11.1806154 L0,13.1826154 L0,16.3557692 L0.882142857,16.3557692 L0.882142857,13.1826154 Z" id="Shape" fill="#7897AA"></path>
                </g>
            </g>
        </g>
    </g>
</svg>