<?xml version="1.0" encoding="UTF-8" standalone="no"?>
<svg width="29px" height="26px" viewBox="0 0 29 26" version="1.1" xmlns="http://www.w3.org/2000/svg" xmlns:xlink="http://www.w3.org/1999/xlink" xmlns:sketch="http://www.bohemiancoding.com/sketch/ns">
    <!-- Generator: Sketch 3.3.3 (12081) - http://www.bohemiancoding.com/sketch -->
    <title>doctor</title>
    <desc>Created with Sketch.</desc>
    <defs></defs>
    <g id="Magiczny-Bank" stroke="none" stroke-width="1" fill="none" fill-rule="evenodd" sketch:type="MSPage">
        <g id="MAIN-SCREEN-HEALTH" sketch:type="MSArtboardGroup" transform="translate(-21.000000, -379.000000)">
            <g id="doctor" sketch:type="MSLayerGroup" transform="translate(21.000000, 379.000000)">
                <ellipse id="Oval" sketch:type="MSShapeGroup" cx="21.30949" cy="18.8661778" rx="5.10661" ry="5.08704444"></ellipse>
                <path d="M26.55646,4.85362222 L21.77204,4.85362222 C20.59551,2.00575556 17.78367,0 14.5,0 C11.21662,0 8.40478,2.00575556 7.22825,4.85362222 L2.44354,4.85362222 C1.09388,4.85362222 0,5.64951111 0,6.63115556 L0,24.1736444 C0,25.155 1.09388,25.9511778 2.44354,25.9511778 L26.55646,25.9511778 C27.90612,25.9511778 29,25.155 29,24.1736444 L29,6.63115556 C29,5.64951111 27.90641,4.85362222 26.55646,4.85362222 L26.55646,4.85362222 Z M14.5,1.48691111 C16.76548,1.48691111 18.70007,2.88108889 19.49641,4.85362222 L9.50388,4.85362222 C10.30022,2.88108889 12.2351,1.48691111 14.5,1.48691111 L14.5,1.48691111 Z M21.30949,23.9532222 C18.48895,23.9532222 16.20317,21.6756222 16.20317,18.8661778 C16.20317,16.0567333 18.48924,13.7794222 21.30949,13.7794222 C24.12974,13.7794222 26.4161,16.0570222 26.4161,18.8661778 C26.41639,21.6756222 24.13003,23.9532222 21.30949,23.9532222 L21.30949,23.9532222 Z" id="Shape" fill="#946C65" sketch:type="MSShapeGroup"></path>
                <path d="M24.157,17.9128444 L22.24329,17.9128444 L22.24329,16.0064667 L20.32958,16.0064667 L20.32958,17.9128444 L18.41587,17.9128444 L18.41587,19.8192222 L20.32958,19.8192222 L20.32958,21.7256 L22.24329,21.7256 L22.24329,19.8192222 L24.157,19.8192222 L24.157,17.9128444 Z" id="Shape" fill="#946C65" sketch:type="MSShapeGroup"></path>
            </g>
        </g>
    </g>
</svg>