<?xml version="1.0" encoding="UTF-8" standalone="no"?>
<svg width="32px" height="26px" viewBox="0 0 32 26" version="1.1" xmlns="http://www.w3.org/2000/svg" xmlns:xlink="http://www.w3.org/1999/xlink" xmlns:sketch="http://www.bohemiancoding.com/sketch/ns">
    <!-- Generator: Sketch 3.3.3 (12081) - http://www.bohemiancoding.com/sketch -->
    <title>dog</title>
    <desc>Created with Sketch.</desc>
    <defs></defs>
    <g id="Magiczny-Bank" stroke="none" stroke-width="1" fill="none" fill-rule="evenodd" sketch:type="MSPage">
        <g id="MAIN-SCREEN-HEALTH" sketch:type="MSArtboardGroup" transform="translate(-20.000000, -527.000000)" fill="#946C65">
            <g id="dog" sketch:type="MSLayerGroup" transform="translate(20.000000, 527.000000)">
                <path d="M14.878232,8.5226601 L23.5177856,0.0451171419 L26.7267352,3.55271368e-15 L27.2875162,0.351337743 L27.8787397,1.45686771 L32,1.44950818 L31.925336,4.26149004 L30.7733314,5.55740794 L26.7940289,6.06521577 C26.7940289,6.06521577 25.3581089,6.30424063 25.3353572,6.28920159 C25.3126055,6.27416254 25.9637524,8.46250391 25.9637524,8.46250391 L24.2435965,8.76136498 L24.4079855,8.97031174 L24.2583371,12.6004818 L23.1813169,14.7667445 C23.1813169,14.7667445 20.7577813,17.7841534 20.7577813,17.8289506 C20.7577813,17.8737477 20.279355,21.1154624 20.279355,21.1154624 L21.0570782,24.088074 L22.0594343,23.8490492 L22.5234406,24.1629493 L23.0569838,25.6191771 L18.795368,25.6191771 C18.795368,25.6191771 17.3318896,18.3070003 17.406874,18.3217193 C17.4812176,18.3370784 15.5514898,18.3962746 15.5514898,18.3962746 C15.5514898,18.3962746 13.621762,18.3367584 13.5768995,18.3217193 C13.5317166,18.3070003 9.41782655,16.9326873 9.41782655,16.9326873 L6.71005504,17.8439896 L3.64338364,19.4422884 L2.41671509,21.5035978 L2.2971886,24.2221456 L3.41907121,24.0135188 L4.04746647,24.1178322 L4.37656485,25.6265366 L0.157248,25.6265366 L0.157248,20.8617184 L2.82015702,12.675357 L5.63271447,9.62819006 L5.00431922,7.83534364 L5.00431922,5.44509506 L6.38095666,2.75630539 L7.30864879,1.44182866 L8.35554696,1.23224194 L9.40308601,1.74036975 L8.47539388,3.35370755 L7.3384503,5.38525885 L7.45797678,7.50640448 L8.62504232,9.03014795 L11.1979059,10.0156855 L14.878232,8.5226601 L14.878232,8.5226601 Z" id="Shape" sketch:type="MSShapeGroup"></path>
            </g>
        </g>
    </g>
</svg>