<?xml version="1.0" encoding="UTF-8" standalone="no"?>
<svg width="22px" height="27px" viewBox="0 0 22 27" version="1.1" xmlns="http://www.w3.org/2000/svg" xmlns:xlink="http://www.w3.org/1999/xlink" xmlns:sketch="http://www.bohemiancoding.com/sketch/ns">
    <!-- Generator: Sketch 3.3.3 (12081) - http://www.bohemiancoding.com/sketch -->
    <title>fuel</title>
    <desc>Created with Sketch.</desc>
    <defs></defs>
    <g id="Magiczny-Bank" stroke="none" stroke-width="1" fill="none" fill-rule="evenodd" sketch:type="MSPage">
        <g id="MAIN-SCREEN-CAR" sketch:type="MSArtboardGroup" transform="translate(-24.000000, -525.000000)" fill="#7897AA">
            <g id="fuel" sketch:type="MSLayerGroup" transform="translate(24.000000, 525.000000)">
                <path d="M14.4665647,19.1734978 L9.13114539,19.1848514 L9.11705973,12.9919275 L14.4524791,12.9805739 L14.4665647,19.1734978 L14.4665647,19.1734978 Z" id="Rectangle-path" sketch:type="MSShapeGroup"></path>
                <path d="M3.05101587,1.828575 L0.0963809524,4.643325 L1.84171429,6.3048375 L4.87177778,3.5218125 L3.05101587,1.828575 Z" id="Shape" sketch:type="MSShapeGroup"></path>
                <path d="M21.923873,3.085425 L19.3086667,0.03915 L10.538,0.058725 L7.67974603,3.1671 L6.06571429,3.17115 L3.44631746,5.6892375 L1.94403175,7.135425 L1.88536508,24.52815 L4.47961905,26.9571375 L19.8593651,26.9227125 L21.9745079,24.299325 L21.923873,3.085425 L21.923873,3.085425 Z M10.9284127,1.175175 L18.5498413,1.138725 L16.2213333,4.1823 L10.1580635,4.1958 L8.08971429,4.2366375 L10.9284127,1.175175 L10.9284127,1.175175 Z M19.192381,23.9088375 L14.8472063,19.69515 L8.91139683,19.707975 L4.85466667,23.9409 L4.26066667,23.4441 L8.58873016,19.123425 L8.5747619,12.93165 L4.22609524,8.9663625 L4.75933333,8.3619 L9.24314286,12.46995 L14.829746,12.457125 L19.248254,8.330175 L19.5758095,8.9272125 L14.993873,13.2546375 L15.0081905,19.1082375 L19.610381,23.36445 L19.192381,23.9088375 L19.192381,23.9088375 Z" id="Shape" sketch:type="MSShapeGroup"></path>
            </g>
        </g>
    </g>
</svg>