<?xml version="1.0" encoding="UTF-8" standalone="no"?>
<svg width="33px" height="26px" viewBox="0 0 33 26" version="1.1" xmlns="http://www.w3.org/2000/svg" xmlns:xlink="http://www.w3.org/1999/xlink" xmlns:sketch="http://www.bohemiancoding.com/sketch/ns">
    <!-- Generator: Sketch 3.3.3 (12081) - http://www.bohemiancoding.com/sketch -->
    <title>hood</title>
    <desc>Created with Sketch.</desc>
    <defs></defs>
    <g id="Magiczny-Bank" stroke="none" stroke-width="1" fill="none" fill-rule="evenodd" sketch:type="MSPage">
        <g id="MAIN-SCREEN-HOME" sketch:type="MSArtboardGroup" transform="translate(-21.000000, -526.000000)" fill="#948E65">
            <g id="hood" sketch:type="MSLayerGroup" transform="translate(21.000000, 526.000000)">
                <path d="M22,7.7967033 L22,0.906593407 C22,0.398901099 21.5966667,0 21.0833333,0 L11.9166667,0 C11.4033333,0 11,0.398901099 11,0.906593407 L11,7.7967033 L0.256666667,18.3857143 C0.11,18.567033 0,18.7846154 0,19.0384615 L0,24.478022 C0,24.9857143 0.403333333,25.3846154 0.916666667,25.3846154 L32.0833333,25.3846154 C32.5966667,25.3846154 33,24.9857143 33,24.478022 L33,19.0384615 C33,18.7846154 32.89,18.567033 32.7433333,18.3857143 L22,7.7967033 L22,7.7967033 Z M12.8333333,1.81318681 L20.1666667,1.81318681 L20.1666667,8.15934066 L12.8333333,8.15934066 L12.8333333,1.81318681 L12.8333333,1.81318681 Z M12.2833333,9.06593407 L20.68,9.06593407 L30.8,19.0384615 L2.2,19.0384615 L12.2833333,9.06593407 L12.2833333,9.06593407 Z M31.1666667,23.5714286 L1.83333333,23.5714286 L1.83333333,19.9450549 L31.1666667,19.9450549 L31.1666667,23.5714286 L31.1666667,23.5714286 Z" id="Shape" sketch:type="MSShapeGroup"></path>
                <ellipse id="Oval" sketch:type="MSShapeGroup" cx="16.5" cy="21.7582418" rx="0.476666667" ry="0.471428571"></ellipse>
                <ellipse id="Oval" sketch:type="MSShapeGroup" cx="14.6666667" cy="21.7582418" rx="0.476666667" ry="0.471428571"></ellipse>
                <ellipse id="Oval" sketch:type="MSShapeGroup" cx="12.8333333" cy="21.7582418" rx="0.476666667" ry="0.471428571"></ellipse>
                <ellipse id="Oval" sketch:type="MSShapeGroup" cx="18.3333333" cy="21.7582418" rx="0.476666667" ry="0.471428571"></ellipse>
                <ellipse id="Oval" sketch:type="MSShapeGroup" cx="20.1666667" cy="21.7582418" rx="0.476666667" ry="0.471428571"></ellipse>
                <path d="M15.015,16.1505495 L16.4083333,17.5285714 C16.5916667,17.7098901 16.885,17.7098901 17.0683333,17.5285714 C17.2516667,17.3472527 17.2516667,17.0571429 17.0683333,16.8758242 L15.9683333,15.8241758 L17.0316667,14.7725275 C17.215,14.5912088 17.215,14.3010989 17.0316667,14.1197802 L15.9683333,13.0681319 L17.0316667,12.0164835 C17.215,11.8351648 17.215,11.5450549 17.0316667,11.3637363 C16.8483333,11.1824176 16.555,11.1824176 16.3716667,11.3637363 L14.9783333,12.7417582 C14.795,12.9230769 14.795,13.2131868 14.9783333,13.3945055 L16.0416667,14.4461538 L14.9783333,15.4978022 C14.8316667,15.6791209 14.8316667,15.9692308 15.015,16.1505495 L15.015,16.1505495 Z" id="Shape" sketch:type="MSShapeGroup"></path>
            </g>
        </g>
    </g>
</svg>