<?xml version="1.0" encoding="UTF-8" standalone="no"?>
<svg width="16px" height="28px" viewBox="0 0 16 28" version="1.1" xmlns="http://www.w3.org/2000/svg" xmlns:xlink="http://www.w3.org/1999/xlink" xmlns:sketch="http://www.bohemiancoding.com/sketch/ns">
    <!-- Generator: Sketch 3.3.3 (12081) - http://www.bohemiancoding.com/sketch -->
    <title>hotel</title>
    <desc>Created with Sketch.</desc>
    <defs></defs>
    <g id="Magiczny-Bank" stroke="none" stroke-width="1" fill="none" fill-rule="evenodd" sketch:type="MSPage">
        <g id="MAIN-SCREEN-CAR" sketch:type="MSArtboardGroup" transform="translate(-29.000000, -592.000000)" fill="#7897AA">
            <g id="hotel" sketch:type="MSLayerGroup" transform="translate(29.000000, 592.000000)">
                <path d="M11.5022857,0.74 C8.68285714,0.0468571429 5.84057143,1.54457143 4.764,4.14628571 C4.72342857,4.24457143 4.68457143,4.344 4.64914286,4.44514286 L4.688,4.45485714 L7.60457143,5.17257143 C8.16,4.00457143 9.47657143,3.34685714 10.7822857,3.66742857 C12.2742857,4.03485714 13.1862857,5.54228571 12.8188571,7.03485714 C12.8034286,7.1 12.784,7.164 12.764,7.22685714 C12.7594286,7.23885714 12.756,7.25142857 12.752,7.26342857 C12.7308571,7.32571429 12.7074286,7.388 12.6828571,7.448 L12.6828571,7.44857143 C12.6782857,7.45885714 12.6737143,7.46857143 12.6697143,7.47885714 C12.6451429,7.53371429 12.6205714,7.58628571 12.5937143,7.63828571 C12.5868571,7.65142857 12.5805714,7.66514286 12.5737143,7.67828571 C12.5617143,7.70057143 12.5491429,7.72285714 12.536,7.74514286 C12.528,7.76057143 12.5194286,7.77657143 12.5102857,7.792 C12.4971429,7.81314286 12.4834286,7.83371429 12.4714286,7.85428571 C12.4611429,7.86971429 12.4514286,7.88628571 12.4411429,7.90114286 C12.428,7.92171429 12.4131429,7.94114286 12.4,7.96114286 C12.3885714,7.97657143 12.3788571,7.99257143 12.3674286,8.00685714 C12.3531429,8.02685714 12.3382857,8.04571429 12.324,8.06514286 C12.3125714,8.07942857 12.3005714,8.09542857 12.2891429,8.10971429 C12.2737143,8.128 12.2588571,8.14628571 12.2434286,8.16457143 C12.2314286,8.17885714 12.2188571,8.19371429 12.2068571,8.20742857 C12.1914286,8.22514286 12.1754286,8.24285714 12.1588571,8.26057143 C12.1468571,8.27371429 12.1331429,8.288 12.12,8.30171429 C12.1034286,8.31828571 12.0874286,8.33542857 12.0708571,8.352 C12.0577143,8.36514286 12.0428571,8.37771429 12.0297143,8.39085714 C12.0131429,8.40628571 11.9948571,8.42342857 11.9782857,8.43885714 C11.964,8.45085714 11.9502857,8.46342857 11.936,8.47485714 C11.9011429,8.50514286 11.8657143,8.53428571 11.8285714,8.56228571 C11.8142857,8.57371429 11.8005714,8.58457143 11.7862857,8.596 C11.7685714,8.60914286 11.7502857,8.62171429 11.7314286,8.63485714 C11.716,8.64628571 11.6988571,8.65828571 11.6822857,8.66971429 C11.6645714,8.68171429 11.6457143,8.69371429 11.6274286,8.70571429 C11.6097143,8.71714286 11.5925714,8.728 11.5748571,8.73942857 C11.5571429,8.75085714 11.5382857,8.76171429 11.5188571,8.77257143 C11.5011429,8.78342857 11.4828571,8.79371429 11.4651429,8.804 C11.4462857,8.81485714 11.4274286,8.82457143 11.408,8.83485714 C11.3891429,8.84457143 11.3702857,8.85371429 11.3508571,8.864 C11.332,8.87314286 11.3131429,8.88171429 11.2937143,8.89085714 C11.2748571,8.90057143 11.2548571,8.90914286 11.2342857,8.91828571 C11.2154286,8.92685714 11.1965714,8.93428571 11.1771429,8.94228571 C11.156,8.95142857 11.136,8.95885714 11.1148571,8.96685714 C11.096,8.97485714 11.0771429,8.98171429 11.0577143,8.98857143 C11.0365714,8.99714286 11.0142857,9.00342857 10.992,9.01142857 C10.9742857,9.01714286 10.9554286,9.02342857 10.9371429,9.02914286 C10.9114286,9.03714286 10.8857143,9.044 10.86,9.05142857 C10.8445714,9.056 10.8297143,9.06057143 10.8142857,9.064 C10.7731429,9.07485714 10.7325714,9.08457143 10.6914286,9.09314286 C10.6782857,9.096 10.6645714,9.09828571 10.6525714,9.10057143 C10.6234286,9.10685714 10.5931429,9.11257143 10.5645714,9.11714286 C10.548,9.12 10.5297143,9.12171429 10.5131429,9.12457143 C10.4874286,9.12857143 10.4617143,9.132 10.436,9.13542857 C10.4171429,9.13771429 10.3994286,9.13885714 10.38,9.14114286 C10.3554286,9.14342857 10.3308571,9.14571429 10.3051429,9.14742857 C10.2862857,9.14914286 10.2674286,9.14457143 10.248,9.14514286 C10.2257143,9.14571429 10.2011429,9.14285714 10.1754286,9.14285714 L10.1182857,9.14285714 C10.0937143,9.14285714 10.068,9.148 10.0422857,9.14685714 C10.0234286,9.14685714 10.0045714,9.14857143 9.98514286,9.14742857 C9.95942857,9.14628571 9.93371429,9.14571429 9.908,9.14457143 C9.88914286,9.14228571 9.87142857,9.14171429 9.852,9.14057143 C9.80057143,9.13257143 9.73257143,9.124 9.65657143,9.11428571 C9.31828571,9.07085714 8.80857143,8.96742857 8.624,8.98857143 C7.176,9.02457143 3.41885714,9.60857143 2.19942857,14.5651429 L0.608,21.0354286 C-0.208571429,25.4965714 1.90285714,27.1325714 4.90914286,27.8451429 C7.98457143,28.5742857 11.0702857,26.668 11.8,23.588 L11.7908571,23.5857143 L15.4948571,8.532 C15.564,8.26285714 15.6165714,8.02 15.6822857,7.752 C16.4485714,4.64228571 14.6114286,1.50571429 11.5022857,0.74 L11.5022857,0.74 Z" id="Shape" sketch:type="MSShapeGroup"></path>
            </g>
        </g>
    </g>
</svg>