<?xml version="1.0" encoding="UTF-8" standalone="no"?>
<svg width="30px" height="30px" viewBox="0 0 30 30" version="1.1" xmlns="http://www.w3.org/2000/svg" xmlns:xlink="http://www.w3.org/1999/xlink" xmlns:sketch="http://www.bohemiancoding.com/sketch/ns">
    <!-- Generator: Sketch 3.3.3 (12081) - http://www.bohemiancoding.com/sketch -->
    <title>socket</title>
    <desc>Created with Sketch.</desc>
    <defs></defs>
    <g id="Magiczny-Bank" stroke="none" stroke-width="1" fill="none" fill-rule="evenodd" sketch:type="MSPage">
        <g id="MAIN-SCREEN-HOME" sketch:type="MSArtboardGroup" transform="translate(-21.000000, -453.000000)" fill="#948E65">
            <g id="socket" sketch:type="MSLayerGroup" transform="translate(21.000000, 453.000000)">
                <path d="M15,2.06818533 C8.15156762,2.06818577 2.54110426,7.40169119 2.09719215,14.1384977 C2.09292086,14.1633472 2.0904968,14.1887641 2.08849007,14.2139156 L2.79219535,14.2139156 L3.67632267,14.2139156 L4.33129634,14.2139156 C4.32764881,14.2159651 4.34115772,14.2268483 4.34115772,14.2777304 L4.34115772,15.5453281 C4.34115772,15.5962087 4.32766663,15.6076803 4.33129634,15.609723 L3.67632267,15.609723 L2.79219535,15.609723 L2.08268872,15.609723 C2.40139752,22.4650188 8.06640772,27.9318137 15,27.9318146 C21.933592,27.9318137 27.5986025,22.4650188 27.9173112,15.609723 L27.2083848,15.609723 L26.4559482,15.609723 L25.6687037,15.609723 C25.6723512,15.6076735 25.6588423,15.5962081 25.6588423,15.5453281 L25.6588423,14.2777304 C25.6588423,14.2268513 25.6723334,14.2159586 25.6687037,14.2139156 L26.4559482,14.2139156 L27.2083848,14.2139156 L27.9115099,14.2139156 C27.9094604,14.1887216 27.9070693,14.1633879 27.9028069,14.1384977 C27.4588592,7.40173218 21.8484056,2.06818577 15,2.06818533 L15,2.06818533 Z M13.9534343,2.8107597 L13.9534343,4.26400069 C13.9534343,4.45079554 14.1379726,4.6010596 14.3664915,4.6010596 L15.6335085,4.6010596 C15.8620274,4.6010596 16.0465657,4.45079554 16.0465657,4.26400069 L16.0465657,2.8107597 C21.8256977,3.29981376 26.4557554,7.79784238 27.1457302,13.5171719 L25.6478186,13.5171719 C25.2323064,13.5171719 24.9620976,13.8963876 24.9620976,14.2777304 L24.9620976,15.5453281 C24.9620976,15.9266715 25.2323064,16.3064664 25.6478186,16.3064667 L27.1660349,16.3064667 C26.5508522,22.1118428 21.8818732,26.6981139 16.0401841,27.1892403 C16.0430058,27.173269 16.0465643,27.1571385 16.0465643,27.140509 L16.0465643,25.5596379 C16.0465643,25.3728431 15.8620259,25.2219986 15.633507,25.2219986 L14.36649,25.2219986 C14.1379711,25.2219986 13.9534328,25.3728431 13.9534328,25.5596379 L13.9534328,27.140509 C13.9534328,27.1571397 13.9569971,27.1732684 13.959813,27.1892403 C8.11838673,26.6978617 3.44913208,22.1116524 2.83396515,16.3064667 L4.35218139,16.3064667 C4.76769356,16.3064667 5.03790238,15.9266688 5.03790238,15.5453281 L5.03790238,14.2777304 C5.03790238,13.8963897 4.76769356,13.5171719 4.35218139,13.5171719 L2.8542698,13.5171719 C3.54424842,7.79784238 8.17429307,3.29981376 13.9534343,2.8107597 L13.9534343,2.8107597 Z M23.4241654,15.0481399 C23.4241655,15.7188685 23.1577196,16.3621257 22.6834429,16.8364025 C22.2091661,17.3106792 21.5659089,17.5771251 20.8951803,17.577125 C20.2244517,17.5771251 19.5811945,17.3106792 19.1069177,16.8364025 C18.632641,16.3621257 18.3661951,15.7188685 18.3661951,15.0481399 C18.3661951,14.3774113 18.632641,13.7341541 19.1069177,13.2598773 C19.5811945,12.7856006 20.2244517,12.5191547 20.8951803,12.5191548 C21.5659089,12.5191547 22.2091661,12.7856006 22.6834429,13.2598773 C23.1577196,13.7341541 23.4241655,14.3774113 23.4241654,15.0481399 L23.4241654,15.0481399 Z M11.4540261,15.0481399 C11.4540262,15.7188685 11.1875803,16.3621257 10.7133036,16.8364025 C10.2390268,17.3106792 9.59576956,17.5771251 8.92504099,17.577125 C8.25431242,17.5771251 7.61105514,17.3106792 7.13677842,16.8364025 C6.66250171,16.3621257 6.39605583,15.7188685 6.39605584,15.0481399 C6.39605583,14.3774113 6.66250171,13.7341541 7.13677842,13.2598773 C7.61105514,12.7856006 8.25431242,12.5191547 8.92504099,12.5191548 C9.59576956,12.5191547 10.2390268,12.7856006 10.7133036,13.2598773 C11.1875803,13.7341541 11.4540262,14.3774113 11.4540261,15.0481399 L11.4540261,15.0481399 Z M15,0.148514851 C6.80577327,0.148514851 0.148514851,6.80577327 0.148514851,15 C0.148514851,23.1942267 6.80577327,29.8514851 15,29.8514851 C23.1942267,29.8514851 29.8514851,23.1942267 29.8514851,15 C29.8514851,6.80577327 23.1942267,0.148514851 15,0.148514851 L15,0.148514851 Z M15,1.50313274 C22.4621985,1.50313274 28.4968672,7.53780149 28.4968672,15 C28.4968672,22.4621985 22.4621985,28.4968672 15,28.4968672 C7.53780149,28.4968672 1.50313274,22.4621985 1.50313274,15 C1.50313274,7.53780149 7.53780149,1.50313274 15,1.50313274 L15,1.50313274 Z" id="Shape" sketch:type="MSShapeGroup"></path>
            </g>
        </g>
    </g>
</svg>