<?xml version="1.0" encoding="UTF-8" standalone="no"?>
<svg width="37px" height="31px" viewBox="0 0 37 31" version="1.1" xmlns="http://www.w3.org/2000/svg" xmlns:xlink="http://www.w3.org/1999/xlink" xmlns:sketch="http://www.bohemiancoding.com/sketch/ns">
    <!-- Generator: Sketch 3.3.3 (12081) - http://www.bohemiancoding.com/sketch -->
    <title>repair</title>
    <desc>Created with Sketch.</desc>
    <defs></defs>
    <g id="Magiczny-Bank" stroke="none" stroke-width="1" fill="none" fill-rule="evenodd" sketch:type="MSPage">
        <g id="MAIN-SCREEN-CAR" sketch:type="MSArtboardGroup" transform="translate(-16.000000, -453.000000)" fill="#7897AA">
            <g id="repair" sketch:type="MSLayerGroup" transform="translate(16.000000, 453.000000)">
                <path d="M28.5993556,10.5371067 C26.2638333,11.8014933 23.1796778,12.85508 23.1796778,12.85508 C23.1796778,12.85508 16.0234667,5.66018667 15.5441111,5.17865333 C15.0651667,4.69670667 14.3465444,5.17865333 14.3465444,5.17865333 C13.9572222,5.57008 14.3465444,6.26241333 14.3465444,6.26241333 L21.4131333,13.3672 L14.7654667,15.2338133 C11.7113222,16.3175733 11.5616778,19.2675333 11.5616778,19.2675333 L11.5616778,22.91024 C11.5616778,26.13176 14.8254889,26.1916933 14.8254889,26.1916933 L16.8304778,26.1916933 C16.8144444,26.0028 16.8017,25.8126667 16.8017,25.61964 C16.8017,21.8789733 19.8180222,18.8459333 23.5385778,18.8459333 C27.2591333,18.8459333 30.2758667,21.8789733 30.2758667,25.61964 C30.2758667,25.8126667 30.2631222,26.0028 30.2470889,26.1916933 L36.9235333,26.1916933 L36.9235333,6.62325333 C34.8873,6.62325333 30.9348778,9.27272 28.5993556,10.5371067 L28.5993556,10.5371067 Z M14.3465444,18.3644 C13.1485667,19.1476667 12.1306556,18.8463467 12.7296444,17.5216133 C13.3286333,16.19688 17.5803444,16.3775067 17.5803444,16.3775067 C17.5803444,16.3775067 15.5441111,17.5815467 14.3465444,18.3644 L14.3465444,18.3644 Z" id="Shape" sketch:type="MSShapeGroup"></path>
                <ellipse id="Oval" sketch:type="MSShapeGroup" cx="23.5389889" cy="25.6799867" rx="5.24002222" ry="5.26834667"></ellipse>
                <ellipse id="Oval" sketch:type="MSShapeGroup" cx="7.33956667" cy="3.67329333" rx="3.29382222" ry="3.31162667"></ellipse>
                <path d="M14.6458333,11.2596133 C14.1664778,10.5371067 13.2686111,10.8380133 12.5499889,11.2596133 C11.8309556,11.6812133 11.4120333,12.0424667 10.6333889,12.0424667 C9.85474444,12.0424667 7.45961111,9.393 6.74057778,8.73084 C6.02195556,8.06826667 5.00404444,7.34617333 4.04574444,7.46645333 C3.08744444,7.58714667 1.82985556,9.23882667 0.153344444,15.57812 C0.153344444,15.57812 -0.376166667,18.6140533 0.535266667,19.8718267 L0.530744444,19.8738933 L0.530744444,27.85784 C0.530744444,27.85784 0.589122222,28.7923867 1.45985556,28.7923867 L1.45985556,20.3996533 C1.48493333,20.4013067 1.50507778,20.4108133 1.53056667,20.4120533 L1.53056667,28.72088 C1.53056667,28.72088 1.71022222,30.1956533 2.99782222,30.1956533 C4.28542222,30.1956533 4.57895556,28.7948667 4.58512222,28.6001867 C4.58923333,28.4724667 4.58512222,20.4120533 4.58512222,20.4120533 C4.58512222,20.4120533 5.03734444,13.4721867 5.99564444,12.9303067 C6.95394444,12.3884267 7.81892222,13.6681067 8.17823333,13.9690133 C8.53754444,14.2703333 9.19614444,15.0531867 10.9330889,14.5113067 C12.6700333,13.9690133 14.6458333,12.58848 14.6458333,12.58848 C14.6458333,12.58848 15.1247778,11.98212 14.6458333,11.2596133 L14.6458333,11.2596133 Z" id="Shape" sketch:type="MSShapeGroup"></path>
            </g>
        </g>
    </g>
</svg>